<?xml version="1.0" encoding="UTF-8" standalone="no"?>
<svg
   xmlns:dc="http://purl.org/dc/elements/1.1/"
   xmlns:cc="http://creativecommons.org/ns#"
   xmlns:rdf="http://www.w3.org/1999/02/22-rdf-syntax-ns#"
   xmlns:svg="http://www.w3.org/2000/svg"
   xmlns="http://www.w3.org/2000/svg"
   viewBox="0 0 1056 816"
   height="816"
   width="1056"
   xml:space="preserve"
   id="svg2"
   version="1.1"><metadata
     id="metadata8"><rdf:RDF><cc:Work
         rdf:about=""><dc:format>image/svg+xml</dc:format><dc:type
           rdf:resource="http://purl.org/dc/dcmitype/StillImage" /></cc:Work></rdf:RDF></metadata><defs
     id="defs6"><clipPath
       id="clipPath74"
       clipPathUnits="userSpaceOnUse"><path
         id="path72"
         d="M 0,612 H 792 V 0 H 0 Z" /></clipPath><clipPath
       id="clipPath290"
       clipPathUnits="userSpaceOnUse"><path
         id="path288"
         d="M 0,612 H 792 V 0 H 0 Z" /></clipPath><clipPath
       id="clipPath298"
       clipPathUnits="userSpaceOnUse"><path
         id="path296"
         d="M 116.74,452.49 H 670.62 V 49 H 116.74 Z" /></clipPath><clipPath
       id="clipPath334"
       clipPathUnits="userSpaceOnUse"><path
         id="path332"
         d="M 160.997,484.98 H 625.523 V 93.71 H 160.997 Z" /></clipPath><clipPath
       id="clipPath370"
       clipPathUnits="userSpaceOnUse"><path
         id="path368"
         d="M 0,612 H 792 V 0 H 0 Z" /></clipPath><clipPath
       id="clipPath378"
       clipPathUnits="userSpaceOnUse"><path
         id="path376"
         d="M 287.28,535.68 H 393.81 V 429.15 H 287.28 Z" /></clipPath><clipPath
       id="clipPath406"
       clipPathUnits="userSpaceOnUse"><path
         id="path404"
         d="M 0,612 H 792 V 0 H 0 Z" /></clipPath><clipPath
       id="clipPath422"
       clipPathUnits="userSpaceOnUse"><path
         id="path420"
         d="M 0,612 H 792 V 0 H 0 Z" /></clipPath><clipPath
       id="clipPath442"
       clipPathUnits="userSpaceOnUse"><path
         id="path440"
         d="m 393.807,322.62 h 52.86 V 219.194 h -52.86 z" /></clipPath><clipPath
       id="clipPath470"
       clipPathUnits="userSpaceOnUse"><path
         id="path468"
         d="m 446.652,322.62 h 51 v -91.25 h -51 z" /></clipPath><clipPath
       id="clipPath498"
       clipPathUnits="userSpaceOnUse"><path
         id="path496"
         d="M 0,612 H 792 V 0 H 0 Z" /></clipPath><clipPath
       id="clipPath510"
       clipPathUnits="userSpaceOnUse"><path
         id="path508"
         d="M 0,612 H 792 V 0 H 0 Z" /></clipPath><clipPath
       id="clipPath518"
       clipPathUnits="userSpaceOnUse"><path
         id="path516"
         d="m 305.931,375.88 h 69.025 v -21.9 h -69.025 z" /></clipPath><clipPath
       id="clipPath538"
       clipPathUnits="userSpaceOnUse"><path
         id="path536"
         d="M 0,612 H 792 V 0 H 0 Z" /></clipPath><clipPath
       id="clipPath550"
       clipPathUnits="userSpaceOnUse"><path
         id="path548"
         d="M 0,612 H 792 V 0 H 0 Z" /></clipPath><clipPath
       id="clipPath562"
       clipPathUnits="userSpaceOnUse"><path
         id="path560"
         d="M 0,612 H 792 V 0 H 0 Z" /></clipPath><clipPath
       id="clipPath570"
       clipPathUnits="userSpaceOnUse"><path
         id="path568"
         d="m 399.37,423.59 h 95.41 v -95.41 h -95.41 z" /></clipPath><clipPath
       id="clipPath706"
       clipPathUnits="userSpaceOnUse"><path
         id="path704"
         d="M 0,612 H 792 V 0 H 0 Z" /></clipPath></defs><g
     transform="matrix(1.3333333,0,0,-1.3333333,0,816)"
     id="g10"><text
       id="text14"
       style="font-variant:normal;font-weight:bold;font-stretch:normal;font-size:31.9999733px;font-family:'Century Gothic';-inkscape-font-specification:CenturyGothic-Bold;writing-mode:lr-tb;fill:#231f20;fill-opacity:1;fill-rule:nonzero;stroke:none"
       transform="matrix(0.53253169,-0.84641007,-0.84641007,-0.53253169,252.8281,253.1445)"><tspan
         id="tspan12"
         y="0"
         x="0">F</tspan></text>
<text
       id="text18"
       style="font-variant:normal;font-weight:bold;font-stretch:normal;font-size:32.0000267px;font-family:'Century Gothic';-inkscape-font-specification:CenturyGothic-Bold;writing-mode:lr-tb;fill:#231f20;fill-opacity:1;fill-rule:nonzero;stroke:none"
       transform="matrix(0.64795261,-0.76168065,-0.76168065,-0.64795261,261.8618,238.2852)"><tspan
         id="tspan16"
         y="0"
         x="0">O</tspan></text>
<text
       id="text22"
       style="font-variant:normal;font-weight:bold;font-stretch:normal;font-size:32.00005341px;font-family:'Century Gothic';-inkscape-font-specification:CenturyGothic-Bold;writing-mode:lr-tb;fill:#231f20;fill-opacity:1;fill-rule:nonzero;stroke:none"
       transform="matrix(0.76840183,-0.63996767,-0.63996767,-0.76840183,281.0781,216.2236)"><tspan
         id="tspan20"
         y="0"
         x="0">N</tspan></text>
<text
       id="text26"
       style="font-variant:normal;font-weight:bold;font-stretch:normal;font-size:31.99999046px;font-family:'Century Gothic';-inkscape-font-specification:CenturyGothic-Bold;writing-mode:lr-tb;fill:#231f20;fill-opacity:1;fill-rule:nonzero;stroke:none"
       transform="matrix(0.85869087,-0.5124939,-0.5124939,-0.85869087,301.0879,199.8457)"><tspan
         id="tspan24"
         y="0"
         x="0">D</tspan></text>
<text
       id="text30"
       style="font-variant:normal;font-weight:bold;font-stretch:normal;font-size:32.0000267px;font-family:'Century Gothic';-inkscape-font-specification:CenturyGothic-Bold;writing-mode:lr-tb;fill:#231f20;fill-opacity:1;fill-rule:nonzero;stroke:none"
       transform="matrix(0.92803358,-0.37249655,-0.37249655,-0.92803358,322.271,187.3457)"><tspan
         id="tspan28"
         y="0"
         x="0">A</tspan></text>
<text
       id="text34"
       style="font-variant:normal;font-weight:bold;font-stretch:normal;font-size:31.99994659px;font-family:'Century Gothic';-inkscape-font-specification:CenturyGothic-Bold;writing-mode:lr-tb;fill:#231f20;fill-opacity:1;fill-rule:nonzero;stroke:none"
       transform="matrix(0.96745473,-0.25304417,-0.25304417,-0.96745473,346.0029,178.2842)"><tspan
         id="tspan32"
         y="0"
         x="0">T</tspan></text>
<text
       id="text38"
       style="font-variant:normal;font-weight:bold;font-stretch:normal;font-size:32.00003052px;font-family:'Century Gothic';-inkscape-font-specification:CenturyGothic-Bold;writing-mode:lr-tb;fill:#231f20;fill-opacity:1;fill-rule:nonzero;stroke:none"
       transform="matrix(0.98386786,-0.17889671,-0.17889671,-0.98386786,360.0386,174.7422)"><tspan
         id="tspan36"
         y="0"
         x="0">I</tspan></text>
<text
       id="text42"
       style="font-variant:normal;font-weight:bold;font-stretch:normal;font-size:31.99995232px;font-family:'Century Gothic';-inkscape-font-specification:CenturyGothic-Bold;writing-mode:lr-tb;fill:#231f20;fill-opacity:1;fill-rule:nonzero;stroke:none"
       transform="matrix(0.99829837,-0.05831259,-0.05831259,-0.99829837,370.4512,172.4004)"><tspan
         id="tspan40"
         y="0"
         x="0">O</tspan></text>
<text
       id="text46"
       style="font-variant:normal;font-weight:bold;font-stretch:normal;font-size:32.00003052px;font-family:'Century Gothic';-inkscape-font-specification:CenturyGothic-Bold;writing-mode:lr-tb;fill:#231f20;fill-opacity:1;fill-rule:nonzero;stroke:none"
       transform="matrix(0.9936053,0.11290927,0.11290927,-0.9936053,399.6904,171.0371)"><tspan
         id="tspan44"
         y="0"
         x="0">N</tspan></text>
<text
       id="text50"
       style="font-variant:normal;font-weight:bold;font-stretch:normal;font-size:31.99994278px;font-family:'Century Gothic';-inkscape-font-specification:CenturyGothic-Bold;writing-mode:lr-tb;fill:#231f20;fill-opacity:1;fill-rule:nonzero;stroke:none"
       transform="matrix(0.94874547,0.3160412,0.3160412,-0.94874547,434.7598,176.4639)"><tspan
         id="tspan48"
         y="0"
         x="0">Y</tspan></text>
<text
       id="text54"
       style="font-variant:normal;font-weight:bold;font-stretch:normal;font-size:31.99999619px;font-family:'Century Gothic';-inkscape-font-specification:CenturyGothic-Bold;writing-mode:lr-tb;fill:#231f20;fill-opacity:1;fill-rule:nonzero;stroke:none"
       transform="matrix(0.89197198,0.45209068,0.45209068,-0.89197198,455.5312,183.3936)"><tspan
         id="tspan52"
         y="0"
         x="0">A</tspan></text>
<text
       id="text58"
       style="font-variant:normal;font-weight:bold;font-stretch:normal;font-size:32.00001526px;font-family:'Century Gothic';-inkscape-font-specification:CenturyGothic-Bold;writing-mode:lr-tb;fill:#231f20;fill-opacity:1;fill-rule:nonzero;stroke:none"
       transform="matrix(0.79768709,0.60307156,0.60307156,-0.79768709,478.9229,195.249)"><tspan
         id="tspan56"
         y="0"
         x="0">M</tspan></text>
<text
       id="text62"
       style="font-variant:normal;font-weight:bold;font-stretch:normal;font-size:31.99993324px;font-family:'Century Gothic';-inkscape-font-specification:CenturyGothic-Bold;writing-mode:lr-tb;fill:#231f20;fill-opacity:1;fill-rule:nonzero;stroke:none"
       transform="matrix(0.69110145,0.72275777,0.72275777,-0.69110145,503.2754,214.3965)"><tspan
         id="tspan60"
         y="0"
         x="0">B</tspan></text>
<text
       id="text66"
       style="font-variant:normal;font-weight:bold;font-stretch:normal;font-size:32.00004196px;font-family:'Century Gothic';-inkscape-font-specification:CenturyGothic-Bold;writing-mode:lr-tb;fill:#231f20;fill-opacity:1;fill-rule:nonzero;stroke:none"
       transform="matrix(0.58070864,0.81411147,0.81411147,-0.58070864,517.5283,229.2471)"><tspan
         id="tspan64"
         y="0"
         x="0">A</tspan></text>
<g
       id="g68"><g
         clip-path="url(#clipPath74)"
         id="g70"><g
           transform="translate(374.2732,267.3846)"
           id="g76"><path
             id="path78"
             style="fill:none;stroke:#2c3792;stroke-width:1.5;stroke-linecap:butt;stroke-linejoin:miter;stroke-miterlimit:4;stroke-dasharray:none;stroke-opacity:1"
             d="m 0,0 c 0,4.903 -3.975,8.878 -8.879,8.878 -4.903,0 -8.878,-3.975 -8.878,-8.878 0,-4.903 3.975,-8.878 8.878,-8.878 C -3.975,-8.878 0,-4.903 0,0 Z" /></g><g
           transform="translate(345.703,295.3846)"
           id="g80"><path
             id="path82"
             style="fill:none;stroke:#2c3792;stroke-width:1.5;stroke-linecap:butt;stroke-linejoin:miter;stroke-miterlimit:4;stroke-dasharray:none;stroke-opacity:1"
             d="m 0,0 c 0,4.903 -3.975,8.878 -8.878,8.878 -4.904,0 -8.879,-3.975 -8.879,-8.878 0,-4.903 3.975,-8.878 8.879,-8.878 C -3.975,-8.878 0,-4.903 0,0 Z" /></g><g
           transform="translate(351.207,236.0127)"
           id="g84"><path
             id="path86"
             style="fill:none;stroke:#2c3792;stroke-width:1.5;stroke-linecap:butt;stroke-linejoin:miter;stroke-miterlimit:4;stroke-dasharray:none;stroke-opacity:1"
             d="m 0,0 c 1.02,4.736 -0.371,9.671 -3.716,13.176 -3.345,3.505 -8.209,5.127 -12.988,4.329" /></g><g
           transform="translate(357.2771,238.6727)"
           id="g88"><path
             id="path90"
             style="fill:none;stroke:#2c3792;stroke-width:1.5;stroke-linecap:butt;stroke-linejoin:miter;stroke-miterlimit:4;stroke-dasharray:none;stroke-opacity:1"
             d="M 0,0 C 0.236,11.425 -8.971,20.809 -20.399,20.791" /></g><g
           transform="translate(363.017,239.8502)"
           id="g92"><path
             id="path94"
             style="fill:none;stroke:#2c3792;stroke-width:1.5;stroke-linecap:butt;stroke-linejoin:miter;stroke-miterlimit:4;stroke-dasharray:none;stroke-opacity:1"
             d="M 0,0 C -0.399,13.747 -11.389,24.829 -25.132,25.342" /></g><g
           transform="translate(363.9475,293.4624)"
           id="g96"><path
             id="path98"
             style="fill:none;stroke:#2c3792;stroke-width:1.5;stroke-linecap:butt;stroke-linejoin:miter;stroke-miterlimit:4;stroke-dasharray:none;stroke-opacity:1"
             d="M 0,0 C -13.34,-0.741 -23.971,-11.429 -24.638,-24.773" /></g><g
           transform="translate(366.5221,241.2912)"
           id="g100"><path
             id="path102"
             style="fill:none;stroke:#2c3792;stroke-width:1.5;stroke-linecap:butt;stroke-linejoin:miter;stroke-miterlimit:4;stroke-dasharray:none;stroke-opacity:1"
             d="M 0,0 C 13.545,0.585 24.39,11.437 24.967,24.983" /></g><g
           transform="translate(364.9864,287.752)"
           id="g104"><path
             id="path106"
             style="fill:none;stroke:#2c3792;stroke-width:1.5;stroke-linecap:butt;stroke-linejoin:miter;stroke-miterlimit:4;stroke-dasharray:none;stroke-opacity:1"
             d="M 0,0 C -10.984,-0.22 -19.815,-9.111 -19.961,-20.096" /></g><g
           transform="translate(365.5275,247.0139)"
           id="g108"><path
             id="path110"
             style="fill:none;stroke:#2c3792;stroke-width:1.5;stroke-linecap:butt;stroke-linejoin:miter;stroke-miterlimit:4;stroke-dasharray:none;stroke-opacity:1"
             d="M 0,0 C 11.142,0.072 20.158,9.083 20.238,20.225" /></g><g
           transform="translate(367.3661,281.8762)"
           id="g112"><path
             id="path114"
             style="fill:none;stroke:#2c3792;stroke-width:1.5;stroke-linecap:butt;stroke-linejoin:miter;stroke-miterlimit:4;stroke-dasharray:none;stroke-opacity:1"
             d="m 0,0 c -4.552,0.619 -9.131,-0.937 -12.363,-4.201 -3.233,-3.264 -4.743,-7.858 -4.08,-12.403" /></g><g
           transform="translate(363.1836,252.9279)"
           id="g116"><path
             id="path118"
             style="fill:none;stroke:#2c3792;stroke-width:1.5;stroke-linecap:butt;stroke-linejoin:miter;stroke-miterlimit:4;stroke-dasharray:none;stroke-opacity:1"
             d="m 0,0 c 4.591,-0.702 9.243,0.818 12.533,4.096 3.291,3.279 4.828,7.925 4.143,12.519" /></g><g
           transform="translate(322.4263,297.9498)"
           id="g120"><path
             id="path122"
             style="fill:none;stroke:#2c3792;stroke-width:1.5;stroke-linecap:butt;stroke-linejoin:miter;stroke-miterlimit:4;stroke-dasharray:none;stroke-opacity:1"
             d="m 0,0 c -0.825,-4.632 0.628,-9.378 3.905,-12.753 3.278,-3.375 7.979,-4.968 12.633,-4.28" /></g><g
           transform="translate(351.3322,293.5373)"
           id="g124"><path
             id="path126"
             style="fill:none;stroke:#2c3792;stroke-width:1.5;stroke-linecap:butt;stroke-linejoin:miter;stroke-miterlimit:4;stroke-dasharray:none;stroke-opacity:1"
             d="m 0,0 c 0.589,4.623 -1.061,9.25 -4.443,12.457 -3.381,3.208 -8.088,4.612 -12.674,3.781" /></g><g
           transform="translate(316.4533,295.4745)"
           id="g128"><path
             id="path130"
             style="fill:none;stroke:#2c3792;stroke-width:1.5;stroke-linecap:butt;stroke-linejoin:miter;stroke-miterlimit:4;stroke-dasharray:none;stroke-opacity:1"
             d="M 0,0 C -0.05,-11.236 9.008,-20.391 20.245,-20.461" /></g><g
           transform="translate(357.1887,295.9218)"
           id="g132"><path
             id="path134"
             style="fill:none;stroke:#2c3792;stroke-width:1.5;stroke-linecap:butt;stroke-linejoin:miter;stroke-miterlimit:4;stroke-dasharray:none;stroke-opacity:1"
             d="M 0,0 C -0.293,11.097 -9.416,19.917 -20.517,19.834" /></g><g
           transform="translate(310.7252,294.3999)"
           id="g136"><path
             id="path138"
             style="fill:none;stroke:#2c3792;stroke-width:1.5;stroke-linecap:butt;stroke-linejoin:miter;stroke-miterlimit:4;stroke-dasharray:none;stroke-opacity:1"
             d="M 0,0 C 0.514,-13.621 11.417,-24.557 25.037,-25.111" /></g><g
           transform="translate(362.894,296.9726)"
           id="g140"><path
             id="path142"
             style="fill:none;stroke:#2c3792;stroke-width:1.5;stroke-linecap:butt;stroke-linejoin:miter;stroke-miterlimit:4;stroke-dasharray:none;stroke-opacity:1"
             d="M 0,0 C -0.819,13.435 -11.713,24.048 -25.165,24.514" /></g><g
           transform="translate(339.9008,230.733)"
           id="g144"><path
             id="path146"
             style="fill:none;stroke:#2c3792;stroke-width:1.5;stroke-linecap:butt;stroke-linejoin:miter;stroke-miterlimit:4;stroke-dasharray:none;stroke-opacity:1"
             d="m 0,0 c 3.145,1.125 5.392,3.92 5.816,7.233 0.424,3.313 -1.048,6.584 -3.808,8.464 -2.761,1.881 -6.343,2.053 -9.271,0.446 -2.928,-1.607 -4.706,-4.722 -4.602,-8.06" /></g><g
           transform="translate(312.7328,253.5132)"
           id="g148"><path
             id="path150"
             style="fill:none;stroke:#2c3792;stroke-width:1.5;stroke-linecap:butt;stroke-linejoin:miter;stroke-miterlimit:4;stroke-dasharray:none;stroke-opacity:1"
             d="M 0,0 C 6.688,2.14 10.912,8.731 10.061,15.702" /></g><g
           transform="translate(316.8449,248.9608)"
           id="g152"><path
             id="path154"
             style="fill:none;stroke:#2c3792;stroke-width:1.5;stroke-linecap:butt;stroke-linejoin:miter;stroke-miterlimit:4;stroke-dasharray:none;stroke-opacity:1"
             d="M 0,0 C 7.001,3.246 11.567,10.168 11.794,17.881" /></g><g
           transform="translate(321.1453,244.7151)"
           id="g156"><path
             id="path158"
             style="fill:none;stroke:#2c3792;stroke-width:1.5;stroke-linecap:butt;stroke-linejoin:miter;stroke-miterlimit:4;stroke-dasharray:none;stroke-opacity:1"
             d="M 0,0 C 7.677,4.347 12.641,12.275 13.197,21.08" /></g><g
           transform="translate(308.6791,258.5733)"
           id="g160"><path
             id="path162"
             style="fill:none;stroke:#2c3792;stroke-width:1.5;stroke-linecap:butt;stroke-linejoin:miter;stroke-miterlimit:4;stroke-dasharray:none;stroke-opacity:1"
             d="m 0,0 c 3.175,0.144 6.031,1.974 7.488,4.799 1.457,2.824 1.293,6.212 -0.429,8.883 -1.723,2.671 -4.742,4.217 -7.916,4.054 -3.174,-0.163 -6.019,-2.01 -7.46,-4.843" /></g><g
           transform="translate(310.36,281.9183)"
           id="g164"><path
             id="path166"
             style="fill:none;stroke:#2c3792;stroke-width:1.5;stroke-linecap:butt;stroke-linejoin:miter;stroke-miterlimit:4;stroke-dasharray:none;stroke-opacity:1"
             d="M 0,0 C -4.821,0.694 -9.671,-1.058 -12.936,-4.673" /></g><g
           transform="translate(300.3974,294.8994)"
           id="g168"><path
             id="path170"
             style="fill:none;stroke:#2c3792;stroke-width:1.5;stroke-linecap:butt;stroke-linejoin:miter;stroke-miterlimit:4;stroke-dasharray:none;stroke-opacity:1"
             d="M 0,0 C 0.103,8.408 -4.971,16.015 -12.773,19.151" /></g><g
           transform="translate(306.1306,296.0198)"
           id="g172"><path
             id="path174"
             style="fill:none;stroke:#2c3792;stroke-width:1.5;stroke-linecap:butt;stroke-linejoin:miter;stroke-miterlimit:4;stroke-dasharray:none;stroke-opacity:1"
             d="M 0,0 C -0.377,11.293 -7.973,21.063 -18.825,24.211" /></g><g
           transform="translate(308.1124,287.8134)"
           id="g176"><path
             id="path178"
             style="fill:none;stroke:#2c3792;stroke-width:1.5;stroke-linecap:butt;stroke-linejoin:miter;stroke-miterlimit:4;stroke-dasharray:none;stroke-opacity:1"
             d="M 0,0 C -4.828,-0.039 -9.484,-1.791 -13.14,-4.944" /></g><g
           transform="translate(307.1884,293.5379)"
           id="g180"><path
             id="path182"
             style="fill:none;stroke:#2c3792;stroke-width:1.5;stroke-linecap:butt;stroke-linejoin:miter;stroke-miterlimit:4;stroke-dasharray:none;stroke-opacity:1"
             d="M 0,0 C -5.16,-0.215 -10.14,-1.956 -14.311,-5.001" /></g><g
           transform="translate(294.3809,292.3429)"
           id="g184"><path
             id="path186"
             style="fill:none;stroke:#2c3792;stroke-width:1.5;stroke-linecap:butt;stroke-linejoin:miter;stroke-miterlimit:4;stroke-dasharray:none;stroke-opacity:1"
             d="M 0,0 C 1.11,5.677 -1.231,11.474 -5.971,14.789" /></g><g
           transform="translate(305.358,309.6229)"
           id="g188"><path
             id="path190"
             style="fill:none;stroke:#2c3792;stroke-width:1.5;stroke-linecap:butt;stroke-linejoin:miter;stroke-miterlimit:4;stroke-dasharray:none;stroke-opacity:1"
             d="M 0,0 C 8.485,-1.644 16.538,4.389 17.343,12.994" /></g><g
           transform="translate(293.579,322.6173)"
           id="g192"><path
             id="path194"
             style="fill:none;stroke:#2c3792;stroke-width:1.5;stroke-linecap:butt;stroke-linejoin:miter;stroke-miterlimit:4;stroke-dasharray:none;stroke-opacity:1"
             d="M 0,0 C 0.056,-0.6 0.149,-1.192 0.278,-1.781" /></g><g
           transform="translate(356.1649,322.6173)"
           id="g196"><path
             id="path198"
             style="fill:none;stroke:#2c3792;stroke-width:1.5;stroke-linecap:butt;stroke-linejoin:miter;stroke-miterlimit:4;stroke-dasharray:none;stroke-opacity:1"
             d="m 0,0 c 0.845,-4.132 4.481,-7.099 8.698,-7.099 4.218,0 7.854,2.967 8.699,7.099" /></g><g
           transform="translate(299.367,322.6173)"
           id="g200"><path
             id="path202"
             style="fill:none;stroke:#2c3792;stroke-width:1.5;stroke-linecap:butt;stroke-linejoin:miter;stroke-miterlimit:4;stroke-dasharray:none;stroke-opacity:1"
             d="m 0,0 c 0.672,-4.325 4.396,-7.515 8.773,-7.515 4.377,0 8.101,3.19 8.773,7.515" /></g><g
           transform="translate(366.3723,298.3225)"
           id="g204"><path
             id="path206"
             style="fill:none;stroke:#2c3792;stroke-width:1.5;stroke-linecap:butt;stroke-linejoin:miter;stroke-miterlimit:4;stroke-dasharray:none;stroke-opacity:1"
             d="M 0,0 C 13.134,0.76 23.652,11.17 24.548,24.295" /></g><g
           transform="translate(365.2321,304.0286)"
           id="g208"><path
             id="path210"
             style="fill:none;stroke:#2c3792;stroke-width:1.5;stroke-linecap:butt;stroke-linejoin:miter;stroke-miterlimit:4;stroke-dasharray:none;stroke-opacity:1"
             d="M 0,0 C 10.418,0.189 19.015,8.209 19.924,18.589" /></g><g
           transform="translate(362.7111,309.9309)"
           id="g212"><path
             id="path214"
             style="fill:none;stroke:#2c3792;stroke-width:1.5;stroke-linecap:butt;stroke-linejoin:miter;stroke-miterlimit:4;stroke-dasharray:none;stroke-opacity:1"
             d="M 0,0 C 8.135,-1.21 15.668,4.523 16.668,12.686" /></g><g
           transform="translate(350.3468,322.6173)"
           id="g216"><path
             id="path218"
             style="fill:none;stroke:#2c3792;stroke-width:1.5;stroke-linecap:butt;stroke-linejoin:miter;stroke-miterlimit:4;stroke-dasharray:none;stroke-opacity:1"
             d="M 0,0 C 0.035,-0.29 0.08,-0.578 0.133,-0.865" /></g><g
           transform="translate(393.8108,248.1108)"
           id="g220"><path
             id="path222"
             style="fill:none;stroke:#2c3792;stroke-width:1.5;stroke-linecap:butt;stroke-linejoin:miter;stroke-miterlimit:4;stroke-dasharray:none;stroke-opacity:1"
             d="m 0,0 c -4.932,0.041 -8.952,-3.946 -8.952,-8.878 0,-4.932 4.02,-8.919 8.952,-8.878" /></g><g
           transform="translate(393.8108,304.7709)"
           id="g224"><path
             id="path226"
             style="fill:none;stroke:#2c3792;stroke-width:1.5;stroke-linecap:butt;stroke-linejoin:miter;stroke-miterlimit:4;stroke-dasharray:none;stroke-opacity:1"
             d="m 0,0 c -5.007,0.152 -9.148,-3.865 -9.148,-8.874 0,-5.009 4.141,-9.027 9.148,-8.875" /></g><g
           transform="translate(379.1237,298.3517)"
           id="g228"><path
             id="path230"
             style="fill:none;stroke:#2c3792;stroke-width:1.5;stroke-linecap:butt;stroke-linejoin:miter;stroke-miterlimit:4;stroke-dasharray:none;stroke-opacity:1"
             d="M 0,0 C -1.539,-9.038 5.521,-17.247 14.687,-17.078" /></g><g
           transform="translate(393.8108,310.5189)"
           id="g232"><path
             id="path234"
             style="fill:none;stroke:#2c3792;stroke-width:1.5;stroke-linecap:butt;stroke-linejoin:miter;stroke-miterlimit:4;stroke-dasharray:none;stroke-opacity:1"
             d="M 0,0 C -0.95,0.017 -1.879,-0.055 -2.814,-0.221" /></g><g
           transform="translate(373.1697,295.8887)"
           id="g236"><path
             id="path238"
             style="fill:none;stroke:#2c3792;stroke-width:1.5;stroke-linecap:butt;stroke-linejoin:miter;stroke-miterlimit:4;stroke-dasharray:none;stroke-opacity:1"
             d="M 0,0 C 0.005,-11.353 9.289,-20.512 20.641,-20.362" /></g><g
           transform="translate(393.8108,316.266)"
           id="g240"><path
             id="path242"
             style="fill:none;stroke:#2c3792;stroke-width:1.5;stroke-linecap:butt;stroke-linejoin:miter;stroke-miterlimit:4;stroke-dasharray:none;stroke-opacity:1"
             d="M 0,0 C -0.13,0.002 -0.259,0.002 -0.389,0.002" /></g><g
           transform="translate(367.4458,294.8155)"
           id="g244"><path
             id="path246"
             style="fill:none;stroke:#2c3792;stroke-width:1.5;stroke-linecap:butt;stroke-linejoin:miter;stroke-miterlimit:4;stroke-dasharray:none;stroke-opacity:1"
             d="M 0,0 C 0.584,-14.096 12.257,-25.181 26.365,-25.035" /></g><g
           transform="translate(379.2335,241.1131)"
           id="g248"><path
             id="path250"
             style="fill:none;stroke:#2c3792;stroke-width:1.5;stroke-linecap:butt;stroke-linejoin:miter;stroke-miterlimit:4;stroke-dasharray:none;stroke-opacity:1"
             d="M 0,0 C -1.138,-8.78 5.724,-16.55 14.577,-16.505" /></g><g
           transform="translate(393.8108,253.8573)"
           id="g252"><path
             id="path254"
             style="fill:none;stroke:#2c3792;stroke-width:1.5;stroke-linecap:butt;stroke-linejoin:miter;stroke-miterlimit:4;stroke-dasharray:none;stroke-opacity:1"
             d="M 0,0 C -0.689,0.003 -1.369,-0.041 -2.052,-0.134" /></g><g
           transform="translate(373.3706,238.7825)"
           id="g256"><path
             id="path258"
             style="fill:none;stroke:#2c3792;stroke-width:1.5;stroke-linecap:butt;stroke-linejoin:miter;stroke-miterlimit:4;stroke-dasharray:none;stroke-opacity:1"
             d="M 0,0 C 0.245,-11.101 9.336,-19.961 20.44,-19.921" /></g><g
           transform="translate(367.6599,237.7776)"
           id="g260"><path
             id="path262"
             style="fill:none;stroke:#2c3792;stroke-width:1.5;stroke-linecap:butt;stroke-linejoin:miter;stroke-miterlimit:4;stroke-dasharray:none;stroke-opacity:1"
             d="M 0,0 C 0.477,-8.549 5.114,-16.322 12.411,-20.802" /></g><g
           transform="translate(364.1824,236.364)"
           id="g264"><path
             id="path266"
             style="fill:none;stroke:#2c3792;stroke-width:1.5;stroke-linecap:butt;stroke-linejoin:miter;stroke-miterlimit:4;stroke-dasharray:none;stroke-opacity:1"
             d="M 0,0 C -6.951,-0.508 -13.41,-3.773 -17.941,-9.068" /></g><g
           transform="translate(365.3043,230.672)"
           id="g268"><path
             id="path270"
             style="fill:none;stroke:#2c3792;stroke-width:1.5;stroke-linecap:butt;stroke-linejoin:miter;stroke-miterlimit:4;stroke-dasharray:none;stroke-opacity:1"
             d="M 0,0 C -5.112,-0.196 -9.963,-2.308 -13.589,-5.917" /></g><g
           transform="translate(367.7625,224.844)"
           id="g272"><path
             id="path274"
             style="fill:none;stroke:#2c3792;stroke-width:1.5;stroke-linecap:butt;stroke-linejoin:miter;stroke-miterlimit:4;stroke-dasharray:none;stroke-opacity:1"
             d="M 0,0 C -3.515,0.406 -7.058,-0.477 -9.973,-2.484" /></g><g
           transform="translate(307.9476,303.6103)"
           id="g276"><path
             id="path278"
             style="fill:none;stroke:#2c3792;stroke-width:1.5;stroke-linecap:butt;stroke-linejoin:miter;stroke-miterlimit:4;stroke-dasharray:none;stroke-opacity:1"
             d="M 0,0 C 10.795,-0.102 19.796,8.236 20.518,19.007" /></g><g
           transform="translate(309.0737,297.8797)"
           id="g280"><path
             id="path282"
             style="fill:none;stroke:#2c3792;stroke-width:1.5;stroke-linecap:butt;stroke-linejoin:miter;stroke-miterlimit:4;stroke-dasharray:none;stroke-opacity:1"
             d="M 0,0 C 13.526,0.484 24.442,11.221 25.149,24.738" /></g></g></g><g
       id="g284"><g
         clip-path="url(#clipPath290)"
         id="g286"><g
           id="g292"><g
             id="g294" /><g
             id="g326"><g
               id="g324"
               clip-path="url(#clipPath298)"><g
                 id="g302"
                 transform="translate(661.52,441.19)"><path
                   id="path300"
                   style="fill:#274085;fill-opacity:1;fill-rule:nonzero;stroke:none"
                   d="m 0,0 c 5.84,-5.84 9.1,-13.73 9.1,-21.99 0,-8.26 -3.26,-16.15 -9.11,-21.99 -5.84,-5.84 -13.73,-9.11 -21.99,-9.11 -8.26,0 -16.15,3.27 -21.99,9.11 -5.84,5.84 -9.11,13.73 -9.11,21.99 0,8.26 3.27,16.15 9.11,21.99 5.84,5.84 13.73,9.11 21.99,9.11 8.26,0 16.15,-3.27 22,-9.11" /></g><g
                 id="g306"
                 transform="translate(652.99,234.51)"><path
                   id="path304"
                   style="fill:#274085;fill-opacity:1;fill-rule:nonzero;stroke:none"
                   d="m 0,0 c 5.84,-5.84 9.11,-13.73 9.11,-21.99 0,-8.26 -3.27,-16.15 -9.11,-21.99 -5.84,-5.84 -13.73,-9.11 -21.99,-9.11 -8.26,0 -16.15,3.27 -22,9.11 -5.84,5.84 -9.1,13.73 -9.1,21.99 0,8.26 3.26,16.15 9.11,21.99 5.84,5.84 13.73,9.11 21.99,9.11 C -13.73,9.11 -5.84,5.84 0,0" /></g><g
                 id="g310"
                 transform="translate(511.88,102.84)"><path
                   id="path308"
                   style="fill:#274085;fill-opacity:1;fill-rule:nonzero;stroke:none"
                   d="m 0,0 c 5.85,-5.84 9.11,-13.73 9.11,-21.99 0,-8.26 -3.26,-16.15 -9.11,-22 -5.84,-5.84 -13.73,-9.11 -21.99,-9.11 -8.26,0 -16.15,3.27 -22,9.11 -5.84,5.85 -9.1,13.74 -9.1,22 0,8.26 3.26,16.15 9.11,21.99 5.84,5.85 13.73,9.11 21.99,9.11 C -13.73,9.11 -5.84,5.84 0,0" /></g><g
                 id="g314"
                 transform="translate(320.54,102.09)"><path
                   id="path312"
                   style="fill:#274085;fill-opacity:1;fill-rule:nonzero;stroke:none"
                   d="m 0,0 c 5.84,-5.84 9.11,-13.73 9.11,-21.99 0,-8.26 -3.27,-16.15 -9.11,-21.99 -5.84,-5.84 -13.73,-9.11 -21.99,-9.11 -8.26,0 -16.15,3.27 -21.99,9.11 -5.84,5.84 -9.11,13.73 -9.11,21.99 0,8.26 3.27,16.15 9.11,21.99 5.84,5.84 13.73,9.11 21.99,9.11 C -13.73,9.11 -5.84,5.84 0,0" /></g><g
                 id="g318"
                 transform="translate(176.85,236)"><path
                   id="path316"
                   style="fill:#274085;fill-opacity:1;fill-rule:nonzero;stroke:none"
                   d="m 0,0 c 5.85,-5.85 9.12,-13.74 9.12,-22.01 0,-8.27 -3.27,-16.17 -9.12,-22.02 -5.84,-5.85 -13.74,-9.12 -22.01,-9.12 -8.27,0 -16.17,3.27 -22.02,9.12 -5.84,5.85 -9.12,13.75 -9.12,22.02 0,8.27 3.28,16.16 9.12,22.01 5.85,5.85 13.75,9.12 22.02,9.12 C -13.74,9.12 -5.84,5.85 0,0" /></g><g
                 id="g322"
                 transform="translate(169.84,443.38)"><path
                   id="path320"
                   style="fill:#274085;fill-opacity:1;fill-rule:nonzero;stroke:none"
                   d="m 0,0 c 5.84,-5.84 9.1,-13.73 9.1,-21.99 0,-8.26 -3.26,-16.15 -9.11,-21.99 -5.84,-5.84 -13.73,-9.11 -21.99,-9.11 -8.26,0 -16.15,3.27 -21.99,9.11 -5.84,5.84 -9.11,13.73 -9.11,21.99 0,8.26 3.27,16.15 9.11,21.99 5.84,5.84 13.73,9.11 21.99,9.11 8.26,0 16.15,-3.27 22,-9.11" /></g></g></g></g><g
           id="g328"><g
             id="g330" /><g
             id="g362"><g
               id="g360"
               clip-path="url(#clipPath334)"><g
                 id="g338"
                 transform="translate(562.97,484.41)"><path
                   id="path336"
                   style="fill:#274085;fill-opacity:1;fill-rule:nonzero;stroke:none"
                   d="M 0,0 C 40.77,-43.63 63.17,-101.29 62.54,-161.01 H 13.81 c 0.62,46.79 -16.65,92.05 -48.29,126.53 C -22.99,-22.98 -11.49,-11.49 0,0" /></g><g
                 id="g342"
                 transform="translate(575.84,307.11)"><path
                   id="path340"
                   style="fill:#274085;fill-opacity:1;fill-rule:nonzero;stroke:none"
                   d="m 0,0 h 48.93 c -4.42,-54.59 -27.99,-105.86 -66.54,-144.76 -11.48,11.49 -22.97,22.97 -34.45,34.46 C -22.64,-80.55 -4.27,-41.63 0,0" /></g><g
                 id="g346"
                 transform="translate(511.81,185.73)"><path
                   id="path344"
                   style="fill:#274085;fill-opacity:1;fill-rule:nonzero;stroke:none"
                   d="m 0,0 c 11.52,-11.51 23.04,-23.03 34.55,-34.55 -40.11,-35.16 -91.1,-55.44 -144.4,-57.44 v 48.78 C -69.48,-41.3 -30.86,-26.11 0,0" /></g><g
                 id="g350"
                 transform="translate(385.67,142.47)"><path
                   id="path348"
                   style="fill:#274085;fill-opacity:1;fill-rule:nonzero;stroke:none"
                   d="m 0,0 v -48.76 c -53.43,1.74 -104.61,21.86 -144.92,56.96 l 34.56,34.56 C -79.31,16.71 -40.5,1.67 0,0" /></g><g
                 id="g354"
                 transform="translate(263.29,196.26)"><path
                   id="path352"
                   style="fill:#274085;fill-opacity:1;fill-rule:nonzero;stroke:none"
                   d="M 0,0 C -11.48,-11.49 -22.97,-22.97 -34.45,-34.46 -73.32,4.5 -97.09,56 -101.53,110.85 H -52.6 C -48.3,68.96 -29.73,29.82 0,0" /></g><g
                 id="g358"
                 transform="translate(224.08,484.98)"><path
                   id="path356"
                   style="fill:#274085;fill-opacity:1;fill-rule:nonzero;stroke:none"
                   d="M 0,0 C 11.5,-11.49 22.99,-22.98 34.48,-34.48 2.51,-69.02 -14.96,-114.52 -14.34,-161.58 H -63.07 C -63.7,-101.6 -41.1,-43.69 0,0" /></g></g></g></g></g></g><g
       id="g364"><g
         clip-path="url(#clipPath370)"
         id="g366"><g
           id="g372"><g
             id="g374" /><g
             id="g398"><g
               id="g396"
               clip-path="url(#clipPath378)"><path
                 id="path380"
                 style="fill:#274085;fill-opacity:1;fill-rule:nonzero;stroke:none"
                 d="m 393.81,442.47 h -53.27 v 13.31 h 53.27 z" /><path
                 id="path382"
                 style="fill:#274085;fill-opacity:1;fill-rule:nonzero;stroke:none"
                 d="m 393.81,469.1 h -53.27 v 13.31 h 53.27 z" /><path
                 id="path384"
                 style="fill:#274085;fill-opacity:1;fill-rule:nonzero;stroke:none"
                 d="m 393.81,495.73 h -53.27 v 13.32 h 53.27 z" /><path
                 id="path386"
                 style="fill:#274085;fill-opacity:1;fill-rule:nonzero;stroke:none"
                 d="m 393.81,522.36 h -53.27 v 13.32 h 53.27 z" /><path
                 id="path388"
                 style="fill:#274085;fill-opacity:1;fill-rule:nonzero;stroke:none"
                 d="m 340.54,429.15 h -53.26 v 13.32 h 53.26 z" /><path
                 id="path390"
                 style="fill:#274085;fill-opacity:1;fill-rule:nonzero;stroke:none"
                 d="m 340.54,455.78 h -53.26 v 13.32 h 53.26 z" /><path
                 id="path392"
                 style="fill:#274085;fill-opacity:1;fill-rule:nonzero;stroke:none"
                 d="m 340.54,482.41 h -53.26 v 13.32 h 53.26 z" /><path
                 id="path394"
                 style="fill:#274085;fill-opacity:1;fill-rule:nonzero;stroke:none"
                 d="m 340.54,509.05 h -53.26 v 13.31 h 53.26 z" /></g></g></g></g></g><g
       id="g400"><g
         clip-path="url(#clipPath406)"
         id="g402"><g
           transform="translate(487.6295,482.7015)"
           id="g408"><path
             id="path410"
             style="fill:#274085;fill-opacity:1;fill-rule:nonzero;stroke:none"
             d="m 0,0 c 0,-20.434 -15.213,-37.671 -35.489,-40.21 -20.276,-2.539 -39.27,10.414 -44.308,30.217 -0.595,2.337 -0.974,4.681 -1.147,7.086 -0.042,0.576 -0.071,1.151 -0.087,1.728 -0.009,0.285 -0.014,0.569 -0.016,0.854 -0.001,0.071 -0.001,0.142 -0.001,0.212 v 0.106 c 0,0.021 0.04,0.007 0.051,0.007 h 0.059 0.471 3.766 7.532 3.766 1.883 0.118 c 0.061,0 0.045,-0.013 0.045,-0.063 0,-0.068 10e-4,-0.136 10e-4,-0.204 0.002,-0.137 0.005,-0.274 0.009,-0.411 0.008,-0.276 0.021,-0.553 0.04,-0.829 0.668,-10.107 7.91,-18.562 17.796,-20.775 4.584,-1.026 9.367,-0.614 13.709,1.181 4.761,1.968 8.717,5.488 11.224,9.989 1.2,2.154 2.004,4.359 2.472,6.779 0.215,1.117 0.346,2.234 0.394,3.371 0.012,0.273 0.018,0.547 0.02,0.82 0,0.034 0.001,0.068 0.001,0.102 0,0.015 -0.014,0.04 0.012,0.04 h 0.059 0.235 0.47 1.879 z" /></g><path
           id="path412"
           style="fill:#274085;fill-opacity:1;fill-rule:nonzero;stroke:none"
           d="m 406.675,522.727 h 80.821 v -16.808 h -80.821 z" /><path
           id="path414"
           style="fill:#274085;fill-opacity:1;fill-rule:nonzero;stroke:none"
           d="m 424.272,499.274 h 45.666 v -16.801 h -45.666 z" /></g></g><g
       id="g416"><g
         clip-path="url(#clipPath422)"
         id="g418"><g
           transform="translate(486.9212,270.8539)"
           id="g424"><path
             id="path426"
             style="fill:none;stroke:#278039;stroke-width:0.1;stroke-linecap:round;stroke-linejoin:round;stroke-miterlimit:4;stroke-dasharray:none;stroke-opacity:1"
             d="M 0,0 C -6.426,3.48 -11.123,9.466 -12.976,16.534 V -2.139 c 3.554,-0.116 7.048,-0.949 10.274,-2.448 -2.336,-3.748 -4.881,-7.316 -7.662,-10.747 -1.162,2.035 -2.018,4.132 -2.612,6.399 v -9.498 c -0.568,-0.648 -1.144,-1.289 -1.727,-1.924 v 11.422 c -3.047,-11.62 -13.547,-19.723 -25.56,-19.723 -0.059,14.299 11.268,26.051 25.56,26.519 V 0.43 16.534 C -17.75,4.914 -28.25,-3.189 -40.263,-3.189 c -0.059,14.3 11.268,26.052 25.56,26.519 v 14.554 c -3.047,-11.62 -13.547,-19.723 -25.56,-19.723 -0.059,14.299 11.268,26.052 25.56,26.519 v 7.083 h 1.727 V 44.68 C -2.452,44.336 6.862,37.777 10.734,27.985 10.003,24.794 9.13,21.653 8.109,18.543 -2.104,20.298 -10.348,27.86 -12.976,37.884 V 23.33 C -5.447,23.084 1.62,19.635 6.447,13.852 4.625,9.068 2.487,4.474 0,0 Z" /></g><g
           transform="translate(448.7986,231.374)"
           id="g428"><path
             id="path430"
             style="fill:none;stroke:#278039;stroke-width:0.1;stroke-linecap:round;stroke-linejoin:round;stroke-miterlimit:4;stroke-dasharray:none;stroke-opacity:1"
             d="M 0,0 C 3.571,8.323 11.155,14.237 20.098,15.672 13.985,9.598 7.38,4.448 0,0 Z" /></g><g
           transform="translate(421.0979,219.6395)"
           id="g432"><path
             id="path434"
             style="fill:none;stroke:#278039;stroke-width:0.1;stroke-linecap:round;stroke-linejoin:round;stroke-miterlimit:4;stroke-dasharray:none;stroke-opacity:1"
             d="M 0,0 V 3.53 C 14.292,3.997 25.619,15.749 25.56,30.049 13.547,30.049 3.046,21.946 0,10.326 V 24.88 C 14.292,25.347 25.619,37.099 25.56,51.398 13.547,51.398 3.046,43.296 0,31.675 V 50.349 C 14.292,50.816 25.619,62.568 25.56,76.868 13.547,76.868 3.046,68.765 0,57.145 V 71.699 C 14.292,72.166 25.619,83.918 25.56,98.217 13.547,98.217 3.046,90.115 0,78.494 v 24.484 H -1.727 V 78.494 c -3.046,11.621 -13.548,19.723 -25.56,19.723 -0.059,-14.299 11.268,-26.051 25.56,-26.518 V 57.145 c -3.046,11.62 -13.548,19.723 -25.56,19.723 -0.059,-14.3 11.268,-26.052 25.56,-26.519 V 47.779 31.675 C -4.773,43.296 -15.275,51.398 -27.287,51.398 -27.346,37.099 -16.019,25.347 -1.727,24.88 V 10.326 c -3.046,11.62 -13.548,19.723 -25.56,19.723 -0.059,-14.3 11.268,-26.052 25.56,-26.519 V -0.442 C -1.15,-0.3 -0.574,-0.152 0,0 Z" /></g><g
           id="g436"><g
             id="g438" /><g
             id="g462"><g
               id="g460"
               clip-path="url(#clipPath442)"><g
                 id="g446"
                 transform="translate(394.22,291.74)"><path
                   id="path444"
                   style="fill:#274085;fill-opacity:1;fill-rule:nonzero;stroke:none"
                   d="M 0,0 C -0.16,0.93 -0.28,1.86 -0.34,2.8 -0.38,3.25 -0.4,3.71 -0.41,4.17 V 4.5 4.67 4.76 c 0,0.03 0.06,0.01 0.08,0.01 0.23,0 0.46,-0.01 0.69,-0.01 1.94,-0.06 3.82,-0.32 5.7,-0.8 7.98,-2.01 14.57,-7.63 17.81,-15.2 0.38,-0.87 0.7,-1.76 0.98,-2.67 0.07,-0.22 0.14,-0.45 0.2,-0.67 0.03,-0.11 0.06,-0.22 0.09,-0.34 l 0.01,-0.02 v 0.03 0.1 0.18 1.49 5.95 5.96 0.74 0.05 c 0,0.01 0.01,0.02 0.01,0.03 h 1.71 l 0.01,-0.01 v -0.03 -1.48 -2.98 -5.94 -2.97 -0.75 -0.37 c 0.01,0.01 0.01,0.04 0.02,0.05 0,0.03 0.01,0.06 0.02,0.09 0.01,0.05 0.03,0.11 0.04,0.16 0.13,0.45 0.26,0.9 0.41,1.34 2.59,7.77 8.63,13.89 16.36,16.59 1.87,0.65 3.75,1.08 5.72,1.31 0.93,0.1 1.87,0.16 2.81,0.17 h 0.17 c 0.03,0 0.01,-0.03 0.01,-0.04 V 4.69 4.6 4.27 C 52.43,4.04 52.43,3.81 52.42,3.59 52.4,3.13 52.37,2.67 52.32,2.21 51.96,-1.74 50.71,-5.54 48.67,-8.94 44.43,-16 37.16,-20.67 28.98,-21.6 c -0.48,-0.05 -0.97,-0.09 -1.45,-0.12 -0.12,-0.01 -0.24,-0.02 -0.36,-0.02 -0.06,0 -0.12,-0.01 -0.18,-0.01 H 26.9 c -0.04,0 -0.02,-0.06 -0.02,-0.08 v -0.79 -2.36 -3.46 -9.98 -1.53 -0.39 -0.06 -0.01 -0.01 h -1.73 v 0.02 0.05 0.39 0.78 1.5 2.81 4.86 8.16 0.09 c 0,0.03 -0.02,0.01 -0.04,0.01 h -0.04 c -0.06,0 -0.11,0.01 -0.17,0.01 -0.11,0 -0.22,0.01 -0.34,0.01 -0.22,0.02 -0.45,0.03 -0.68,0.05 -0.46,0.04 -0.92,0.09 -1.37,0.15 -0.94,0.12 -1.87,0.3 -2.8,0.53 -1.94,0.47 -3.77,1.15 -5.56,2.05 -3.73,1.87 -6.95,4.6 -9.42,7.95 C 2.33,-7.74 0.72,-3.98 0,0" /></g><g
                 id="g450"
                 transform="translate(393.84,317.86)"><path
                   id="path448"
                   style="fill:#274085;fill-opacity:1;fill-rule:nonzero;stroke:none"
                   d="m 0,0 h 0.17 c 0.11,0 0.23,-0.01 0.34,-0.01 0.46,-0.01 0.91,-0.03 1.36,-0.06 0.94,-0.07 1.86,-0.18 2.78,-0.35 1.92,-0.35 3.75,-0.89 5.55,-1.64 7.33,-3.08 12.88,-9.28 15.12,-16.91 0.06,-0.21 0.12,-0.43 0.18,-0.65 0.01,-0.02 0.02,-0.05 0.02,-0.08 l 0.01,-0.01 v 0.04 0.19 0.36 1.46 2.98 6.13 13.05 0.21 0.02 c 0,0.01 -0.01,0.03 0,0.03 h 0.05 0.09 0.36 0.72 0.37 0.09 0.04 c 0.01,0 0.01,-0.01 0.01,-0.02 V 4.71 4.5 3.66 0.32 v -6.48 -12.21 -0.73 -0.36 -0.18 -0.05 -0.02 c 0.01,0.03 0.01,0.04 0.02,0.07 0.12,0.44 0.24,0.87 0.38,1.3 0.29,0.89 0.62,1.75 0.99,2.6 0.79,1.78 1.74,3.42 2.89,4.99 2.38,3.22 5.45,5.86 8.99,7.72 3.41,1.79 7.17,2.81 11.02,3 0.22,0.01 0.45,0.02 0.68,0.02 0.11,0 0.22,0 0.33,0.01 h 0.17 0.09 c 0.01,0 0,-0.01 0,-0.02 v -0.02 -0.04 c 0,-0.44 -0.01,-0.88 -0.03,-1.32 -0.05,-0.91 -0.14,-1.81 -0.28,-2.71 -0.29,-1.9 -0.77,-3.71 -1.46,-5.5 -2.91,-7.57 -9.15,-13.39 -16.91,-15.77 -1.83,-0.56 -3.66,-0.91 -5.57,-1.07 -0.23,-0.01 -0.45,-0.03 -0.68,-0.04 -0.11,-0.01 -0.22,-0.02 -0.34,-0.02 -0.05,0 -0.11,-0.01 -0.17,-0.01 H 27.3 27.26 c -0.01,0 -0.01,0 -0.01,-0.01 h -1.71 c 0,0 -0.01,0.01 -0.02,0.01 h -0.08 c -0.06,0 -0.11,0.01 -0.17,0.01 -0.11,0 -0.22,0.01 -0.34,0.01 -0.45,0.03 -0.91,0.07 -1.36,0.12 -0.94,0.1 -1.86,0.25 -2.78,0.45 -7.91,1.71 -14.59,6.96 -18.14,14.23 -1.66,3.4 -2.57,7.12 -2.67,10.91 -0.01,0.21 -0.01,0.43 -0.01,0.65 v 0.09 0.04 C -0.03,0.01 -0.01,0 0,0" /></g><g
                 id="g454"
                 transform="translate(393.83,249.69)"><path
                   id="path452"
                   style="fill:#274085;fill-opacity:1;fill-rule:nonzero;stroke:none"
                   d="m 0,0 c 0.89,0 1.79,-0.05 2.68,-0.14 7.81,-0.8 14.86,-5.03 19.24,-11.55 1.05,-1.58 1.92,-3.22 2.62,-4.98 0.33,-0.84 0.62,-1.69 0.87,-2.56 0.03,-0.11 0.06,-0.21 0.08,-0.32 0.02,-0.06 0.03,-0.11 0.05,-0.16 v 0.06 0.09 0.71 1.42 11.39 0.8 c 0,0.01 0.01,0.03 0.01,0.05 l 1.72,-0.02 v -0.03 -0.09 -0.19 -0.36 -0.73 -2.91 -5.82 -2.91 -1.46 c 0.01,0.01 0.01,0.04 0.02,0.05 0,0.03 0.01,0.06 0.02,0.08 0.01,0.06 0.03,0.11 0.04,0.17 l 0.09,0.33 c 0.07,0.22 0.13,0.43 0.2,0.65 0.58,1.82 1.33,3.53 2.28,5.18 4.02,6.98 10.99,11.74 18.95,12.95 0.92,0.14 1.84,0.23 2.77,0.27 0.23,0.01 0.46,0.02 0.69,0.02 C 52.44,0 52.55,0 52.67,0 h 0.08 0.04 c 0.02,0 0.04,0.01 0.04,-0.01 v -0.16 c 0,-0.45 -0.02,-0.89 -0.04,-1.34 -0.1,-1.87 -0.39,-3.68 -0.88,-5.49 -1.04,-3.87 -2.95,-7.45 -5.58,-10.47 -2.67,-3.06 -6,-5.46 -9.74,-7.02 -1.78,-0.74 -3.58,-1.28 -5.48,-1.62 -0.89,-0.16 -1.79,-0.28 -2.7,-0.35 -0.22,-0.02 -0.44,-0.03 -0.66,-0.04 -0.11,-0.01 -0.22,-0.01 -0.33,-0.02 h -0.09 c -0.02,0 -0.06,0.03 -0.06,-0.02 v -0.21 -3.3 c -0.34,-0.09 -0.67,-0.18 -1,-0.26 -0.17,-0.04 -0.34,-0.08 -0.5,-0.13 -0.05,-0.01 -0.09,-0.02 -0.13,-0.03 -0.02,0 -0.04,-0.01 -0.06,-0.01 -0.01,-0.01 -0.04,-0.03 -0.04,0 v 0.07 0.59 1.04 1.56 0.52 0.1 c 0,0.02 0.02,0.08 -0.01,0.08 -0.06,0 -0.11,0 -0.17,0.01 -0.21,0 -0.43,0.02 -0.64,0.03 -0.89,0.06 -1.76,0.16 -2.64,0.3 -1.85,0.31 -3.61,0.8 -5.36,1.48 -3.68,1.45 -6.98,3.71 -9.67,6.6 -2.69,2.89 -4.69,6.34 -5.86,10.09 -0.56,1.78 -0.92,3.56 -1.09,5.4 -0.04,0.44 -0.07,0.88 -0.09,1.32 -0.01,0.22 -0.02,0.44 -0.02,0.66 -0.01,0.1 -0.01,0.21 -0.01,0.32 v 0.16 0.08 C -0.02,-0.05 -0.03,0 0,0" /></g><g
                 id="g458"
                 transform="translate(393.87,271.04)"><path
                   id="path456"
                   style="fill:#274085;fill-opacity:1;fill-rule:nonzero;stroke:none"
                   d="m 0,0 h 0.09 0.18 c 0.25,-0.01 0.5,-0.01 0.75,-0.02 0.5,-0.02 1,-0.06 1.5,-0.11 2.09,-0.2 4.1,-0.64 6.09,-1.33 8.23,-2.86 14.51,-9.58 16.81,-17.98 0.02,-0.06 0.04,-0.12 0.05,-0.18 0.01,-0.03 0.02,-0.05 0.03,-0.08 v -0.02 h 1.73 v 0.01 0.01 c 0.01,0.03 0.02,0.05 0.03,0.08 0.01,0.06 0.03,0.12 0.04,0.18 0.07,0.24 0.14,0.47 0.21,0.71 0.3,0.97 0.64,1.92 1.05,2.85 0.85,1.96 1.9,3.75 3.19,5.45 2.66,3.49 6.14,6.26 10.13,8.07 1.96,0.89 3.95,1.52 6.06,1.91 1.01,0.19 2.01,0.32 3.04,0.39 0.49,0.03 0.99,0.05 1.49,0.06 h 0.18 0.09 0.03 c 0,0 0.02,0.01 0.02,0 v -0.05 -0.36 c -0.01,-0.24 -0.01,-0.48 -0.02,-0.72 -0.16,-4.18 -1.31,-8.26 -3.36,-11.91 -4.29,-7.65 -12.09,-12.67 -20.84,-13.4 -0.44,-0.04 -0.88,-0.07 -1.32,-0.08 -0.02,0 -0.02,-0.02 -0.02,-0.04 l -1.72,0.02 c 0,0.01 -0.01,0.02 -0.03,0.02 h -0.09 c -0.06,0.01 -0.12,0.01 -0.18,0.01 -0.12,0.01 -0.24,0.01 -0.36,0.02 -0.49,0.03 -0.97,0.07 -1.46,0.12 -1,0.12 -1.98,0.28 -2.96,0.51 -2.08,0.48 -4.03,1.18 -5.93,2.14 -3.96,1.99 -7.36,4.95 -9.88,8.6 -2.43,3.51 -3.96,7.56 -4.48,11.79 -0.12,0.98 -0.19,1.95 -0.2,2.93 v 0.36 c 0,0.02 -0.01,0.04 0.01,0.04 z" /></g></g></g></g><g
           id="g464"><g
             id="g466" /><g
             id="g490"><g
               id="g488"
               clip-path="url(#clipPath470)"><g
                 id="g474"
                 transform="translate(468.75,246.9)"><path
                   id="path472"
                   style="fill:#274085;fill-opacity:1;fill-rule:nonzero;stroke:none"
                   d="m 0,0 -0.27,-0.27 c -0.19,-0.18 -0.37,-0.36 -0.55,-0.54 -0.37,-0.35 -0.75,-0.71 -1.12,-1.06 -0.75,-0.71 -1.51,-1.4 -2.28,-2.09 -1.63,-1.44 -3.3,-2.83 -5.01,-4.17 -3.43,-2.69 -6.99,-5.15 -10.72,-7.4 3.5,8.16 10.85,14.01 19.58,15.59 0.17,0.03 0.34,0.06 0.5,0.08 H 0.14 C 0.09,0.09 0.05,0.05 0,0" /></g><g
                 id="g478"
                 transform="translate(446.67,289.94)"><path
                   id="path476"
                   style="fill:#274085;fill-opacity:1;fill-rule:nonzero;stroke:none"
                   d="m 0,0 c 0.07,2.12 0.38,4.17 0.94,6.22 1.22,4.41 3.56,8.42 6.8,11.66 3.22,3.22 7.21,5.54 11.6,6.76 2.03,0.57 4.05,0.88 6.15,0.95 h 0.05 c 0.03,0 0.01,0.03 0.01,0.04 v 0.12 0.28 0.73 2.15 3.09 0.45 0.12 0.06 c 0,0.01 -0.02,0.05 0,0.05 h 0.05 0.21 0.41 0.83 0.2 c 0.02,0 0.02,-0.01 0.02,-0.03 v -0.11 -0.23 -0.45 -1.64 -4.24 -0.26 -0.11 c 0,-0.03 0.07,-0.02 0.08,-0.02 0.13,0 0.25,-0.01 0.37,-0.01 0.25,-0.02 0.49,-0.03 0.74,-0.05 0.5,-0.04 1,-0.09 1.49,-0.16 1.03,-0.14 2.04,-0.34 3.04,-0.59 2.12,-0.55 4.1,-1.33 6.03,-2.37 3.98,-2.17 7.35,-5.32 9.76,-9.16 0.6,-0.95 1.13,-1.92 1.6,-2.94 0.11,-0.24 0.22,-0.5 0.33,-0.75 C 50.77,9.43 50.82,9.31 50.87,9.18 50.9,9.12 50.92,9.05 50.95,8.99 50.96,8.95 50.99,8.92 50.98,8.87 50.89,8.49 50.8,8.1 50.71,7.72 50.34,6.2 49.94,4.69 49.51,3.18 49.29,2.43 49.07,1.68 48.83,0.93 48.72,0.56 48.6,0.19 48.48,-0.19 c -0.03,-0.09 -0.06,-0.18 -0.09,-0.28 -0.01,-0.02 0.01,-0.08 -0.05,-0.07 -0.01,0 -0.03,0.01 -0.05,0.01 -0.26,0.04 -0.52,0.09 -0.78,0.15 -2.15,0.44 -4.17,1.12 -6.16,2.08 -4.02,1.94 -7.49,4.88 -10.08,8.53 -1.15,1.63 -2.09,3.34 -2.86,5.18 -0.36,0.88 -0.67,1.77 -0.94,2.69 -0.07,0.22 -0.13,0.44 -0.19,0.67 -0.02,0.08 -0.01,-0.08 -0.01,-0.13 V 18.46 18.08 16.59 4.65 4.27 h -1.72 v 0.04 0.12 0.24 0.96 3.84 7.69 0.97 0.48 0.12 0.06 C 25.54,18.78 25.54,18.76 25.54,18.75 25.52,18.68 25.5,18.61 25.48,18.54 25.32,17.95 25.14,17.38 24.94,16.81 24.53,15.62 24.04,14.49 23.47,13.38 22.25,11.02 20.77,8.97 18.92,7.07 15.24,3.28 10.5,0.69 5.32,-0.38 4.27,-0.6 3.22,-0.75 2.15,-0.84 1.63,-0.88 1.11,-0.91 0.59,-0.92 H 0.2 c -0.06,0 -0.13,-0.01 -0.19,-0.01 -0.04,0 -0.02,0.06 -0.02,0.08 v 0.09 c 0,0.25 0,0.51 0.01,0.76" /></g><g
                 id="g482"
                 transform="translate(446.73,244.24)"><path
                   id="path480"
                   style="fill:#274085;fill-opacity:1;fill-rule:nonzero;stroke:none"
                   d="m 0,0 c 0.2,2.81 0.82,5.43 1.89,8.05 2.25,5.52 6.31,10.12 11.51,13.05 2.51,1.41 5.09,2.36 7.93,2.91 1.3,0.25 2.61,0.4 3.93,0.46 h 0.12 c 0.03,0 0.11,-0.02 0.11,0.02 v 0.01 h 1.72 c 0,-0.02 0.01,-0.02 0.05,-0.03 0.27,-0.01 0.55,-0.02 0.83,-0.04 1.14,-0.07 2.27,-0.22 3.4,-0.45 1.17,-0.23 2.31,-0.54 3.44,-0.92 0.58,-0.2 1.15,-0.42 1.72,-0.66 0.14,-0.06 0.28,-0.12 0.42,-0.18 0.07,-0.04 0.14,-0.07 0.21,-0.1 0.04,-0.01 0.07,-0.03 0.11,-0.05 0.02,-0.01 0.03,-0.01 0.05,-0.02 0.01,-0.01 0.02,-0.01 0.03,-0.01 0.04,-0.02 -0.01,-0.05 -0.02,-0.08 -1.88,-3.01 -3.9,-5.91 -6.07,-8.72 -0.26,-0.34 -0.53,-0.68 -0.79,-1.01 -0.14,-0.17 -0.27,-0.34 -0.41,-0.51 -0.07,-0.08 -0.13,-0.17 -0.2,-0.25 -0.03,-0.04 -0.07,-0.09 -0.1,-0.13 -0.01,-0.01 -0.02,-0.02 -0.03,-0.03 L 29.84,11.3 c 0,-0.01 -0.01,-0.02 -0.01,-0.02 0,0 -0.01,0 -0.01,0.01 -0.03,0.06 -0.07,0.12 -0.11,0.19 -0.07,0.13 -0.14,0.26 -0.21,0.39 -0.14,0.26 -0.27,0.52 -0.4,0.78 -0.26,0.52 -0.5,1.05 -0.72,1.58 -0.44,1.05 -0.8,2.11 -1.1,3.21 -0.02,0.06 -0.04,0.13 -0.05,0.2 0,0 -0.01,0.02 -0.02,0.03 V 17.61 17.5 17.06 16.17 14.39 10.83 9.04 8.6 8.38 8.27 8.21 8.18 C 27.21,8.17 27.2,8.16 27.19,8.16 27.18,8.15 27.17,8.14 27.17,8.13 27.15,8.1 27.13,8.08 27.11,8.06 27.08,8.02 27.04,7.98 27.01,7.94 26.72,7.62 26.43,7.3 26.14,6.98 26,6.82 25.86,6.66 25.71,6.5 25.64,6.42 25.56,6.34 25.49,6.26 v 0.02 0.23 0.44 3.56 7.13 c 0,0.01 0,0.02 -0.01,0.03 0,-0.02 0,-0.04 -0.01,-0.05 -0.01,-0.04 -0.02,-0.07 -0.03,-0.1 -0.01,-0.07 -0.03,-0.14 -0.05,-0.2 -0.04,-0.14 -0.08,-0.27 -0.11,-0.4 C 25.2,16.65 25.11,16.38 25.03,16.11 24.85,15.57 24.65,15.04 24.44,14.51 24,13.43 23.5,12.38 22.92,11.36 21.71,9.23 20.28,7.35 18.53,5.62 15.06,2.17 10.69,-0.25 5.92,-1.36 4.57,-1.67 3.22,-1.88 1.83,-1.98 1.5,-2 1.16,-2.02 0.83,-2.03 0.66,-2.03 0.5,-2.04 0.33,-2.04 H 0.08 -0.04 c -0.06,0 -0.03,0.05 -0.03,0.08 0,0.66 0.02,1.31 0.07,1.96" /></g><g
                 id="g486"
                 transform="translate(446.7,269.2)"><path
                   id="path484"
                   style="fill:#274085;fill-opacity:1;fill-rule:nonzero;stroke:none"
                   d="m 0,0 c 0.03,0.6 0.08,1.2 0.16,1.8 0.15,1.24 0.39,2.46 0.71,3.66 1.4,5.18 4.34,9.81 8.43,13.27 3.96,3.36 8.81,5.47 13.96,6.08 0.59,0.07 1.18,0.12 1.77,0.15 0.14,0.01 0.29,0.02 0.43,0.02 h 0.03 c 0.01,0 0.03,-0.01 0.03,0.01 v 0.02 h 1.72 c 0,-0.01 0,-0.03 0.02,-0.03 h 0.04 0.09 c 0.05,0 0.11,-0.01 0.17,-0.01 0.22,-0.01 0.45,-0.02 0.68,-0.04 0.46,-0.03 0.92,-0.07 1.37,-0.13 0.95,-0.12 1.88,-0.28 2.8,-0.5 1.95,-0.46 3.79,-1.11 5.6,-2 1.87,-0.91 3.58,-2.02 5.19,-3.35 0.81,-0.66 1.57,-1.37 2.3,-2.13 0.36,-0.38 0.71,-0.77 1.05,-1.17 0.02,-0.03 0.04,-0.05 0.06,-0.08 0.01,-0.01 0.02,-0.02 0.03,-0.03 0.05,-0.06 0.01,-0.09 -0.01,-0.14 -0.26,-0.67 -0.52,-1.34 -0.8,-2.01 -0.54,-1.34 -1.11,-2.67 -1.71,-3.99 -1.19,-2.64 -2.49,-5.22 -3.9,-7.75 -4.43,2.4 -8.08,6.02 -10.53,10.43 -0.58,1.05 -1.08,2.13 -1.52,3.25 -0.21,0.54 -0.4,1.09 -0.57,1.64 -0.09,0.27 -0.17,0.55 -0.25,0.82 -0.02,0.07 -0.04,0.14 -0.05,0.21 -0.01,0.03 -0.02,0.07 -0.03,0.1 -0.01,0.02 -0.02,0.08 -0.03,0.07 V 17.71 11.17 2.14 0.38 -0.08 -0.3 -0.42 -0.46 h -1.72 v 0.26 0.53 1.06 1.33 11.58 3.64 0.24 c -0.01,-0.01 -0.01,-0.03 -0.02,-0.04 0,-0.02 0,-0.04 -0.01,-0.06 -0.01,-0.03 -0.02,-0.07 -0.03,-0.11 -0.04,-0.14 -0.08,-0.29 -0.12,-0.43 -0.08,-0.29 -0.17,-0.58 -0.27,-0.87 -0.19,-0.58 -0.4,-1.16 -0.63,-1.73 C 23.45,12.52 22.18,10.36 20.54,8.32 17.2,4.17 12.67,1.12 7.57,-0.42 5.14,-1.15 2.72,-1.51 0.19,-1.53 h -0.23 v 0.02 0.02 0.06 0.11 0.44 C -0.03,-0.59 -0.02,-0.29 0,0" /></g></g></g></g></g></g><g
       id="g492"><g
         clip-path="url(#clipPath498)"
         id="g494"><g
           transform="translate(361.681,395.4217)"
           id="g500"><path
             id="path502"
             style="fill:#7bd3dd;fill-opacity:1;fill-rule:nonzero;stroke:none"
             d="m 0,0 c -4.535,-7.362 -12.573,-11.836 -21.219,-11.811 -8.648,0.026 -16.659,4.547 -21.15,11.936 -2.68,2.694 -6.903,3.086 -10.033,0.932 -3.13,-2.155 -4.271,-6.24 -2.711,-9.704 7.378,-11.564 20.132,-18.579 33.848,-18.62 13.717,-0.04 26.512,6.901 33.958,18.421 1.581,3.455 0.463,7.548 -2.654,9.72 C 6.921,3.047 2.695,2.679 0,0" /></g></g></g><g
       id="g504"><g
         clip-path="url(#clipPath510)"
         id="g506"><g
           id="g512"><g
             id="g514" /><g
             id="g530"><g
               id="g528"
               clip-path="url(#clipPath518)"><g
                 id="g522"
                 transform="translate(316.81,375.88)"><path
                   id="path520"
                   style="fill:#4c78c5;fill-opacity:1;fill-rule:nonzero;stroke:none"
                   d="M 0,0 C 6.76,-4.92 14.99,-7.69 23.61,-7.72 15.2,-7.77 7.38,-12.06 2.84,-19.13 c -2.76,-3.28 -7.66,-3.71 -10.95,-0.95 -3.28,2.75 -3.71,7.65 -0.95,10.94 2.51,3.51 5.57,6.6 9.06,9.14" /></g><g
                 id="g526"
                 transform="translate(374.15,365.53)"><path
                   id="path524"
                   style="fill:#4c78c5;fill-opacity:1;fill-rule:nonzero;stroke:none"
                   d="m 0,0 c 1.7,-3.45 0.64,-7.63 -2.51,-9.85 -3.15,-2.22 -7.44,-1.83 -10.13,0.94 -4.54,7.16 -12.41,11.51 -20.89,11.54 8.62,0.01 16.87,2.79 23.64,7.72 C -6,7.52 -2.65,4.01 0,0" /></g></g></g></g></g></g><g
       id="g532"><g
         clip-path="url(#clipPath538)"
         id="g534"><g
           transform="translate(352.574,408.4474)"
           id="g540"><path
             id="path542"
             style="fill:#ed1f24;fill-opacity:1;fill-rule:nonzero;stroke:none"
             d="m 0,0 c 0,-6.649 -5.39,-12.039 -12.039,-12.039 -6.65,0 -12.04,5.39 -12.04,12.039 0,6.649 5.39,12.039 12.04,12.039 C -5.39,12.039 0,6.649 0,0" /></g></g></g><g
       id="g544"><g
         clip-path="url(#clipPath550)"
         id="g546"><g
           transform="translate(352.5758,343.3191)"
           id="g552"><path
             id="path554"
             style="fill:#fab90a;fill-opacity:1;fill-rule:nonzero;stroke:none"
             d="m 0,0 c 0,6.649 -5.39,12.039 -12.039,12.039 -6.649,0 -12.039,-5.39 -12.039,-12.039 0,-6.649 5.39,-12.039 12.039,-12.039 C -5.39,-12.039 0,-6.649 0,0" /></g></g></g><g
       id="g556"><g
         clip-path="url(#clipPath562)"
         id="g558"><g
           id="g564"><g
             id="g566" /><g
             id="g638"><g
               id="g636"
               clip-path="url(#clipPath570)"><g
                 id="g574"
                 transform="translate(494.78,338)"><path
                   id="path572"
                   style="fill:#274085;fill-opacity:1;fill-rule:nonzero;stroke:none"
                   d="m 0,0 v -4.13 h -5.69 v -5.69 h -4.13 v 5.69 h -5.69 V 0 h 5.69 v 5.69 h 4.13 V 0 Z" /></g><g
                 id="g578"
                 transform="translate(494.78,364.64)"><path
                   id="path576"
                   style="fill:#274085;fill-opacity:1;fill-rule:nonzero;stroke:none"
                   d="m 0,0 v -4.14 h -5.69 v -5.69 h -4.13 v 5.69 h -5.69 V 0 h 5.69 v 5.69 h 4.13 V 0 Z" /></g><g
                 id="g582"
                 transform="translate(494.78,391.27)"><path
                   id="path580"
                   style="fill:#274085;fill-opacity:1;fill-rule:nonzero;stroke:none"
                   d="m 0,0 v -4.14 h -5.69 v -5.69 h -4.13 v 5.69 h -5.69 V 0 h 5.69 v 5.69 h 4.13 V 0 Z" /></g><g
                 id="g586"
                 transform="translate(494.78,417.9)"><path
                   id="path584"
                   style="fill:#274085;fill-opacity:1;fill-rule:nonzero;stroke:none"
                   d="m 0,0 v -4.14 h -5.69 v -5.69 h -4.13 v 5.69 h -5.69 V 0 h 5.69 v 5.69 h 4.13 V 0 Z" /></g><g
                 id="g590"
                 transform="translate(468.15,338)"><path
                   id="path588"
                   style="fill:#274085;fill-opacity:1;fill-rule:nonzero;stroke:none"
                   d="m 0,0 v -4.13 h -5.69 v -5.69 h -4.14 v 5.69 h -5.69 V 0 h 5.69 v 5.69 h 4.14 l 0,-5.69 z" /></g><g
                 id="g594"
                 transform="translate(468.15,364.64)"><path
                   id="path592"
                   style="fill:#274085;fill-opacity:1;fill-rule:nonzero;stroke:none"
                   d="m 0,0 v -4.14 h -5.69 v -5.69 h -4.14 v 5.69 h -5.69 V 0 h 5.69 v 5.69 h 4.14 l 0,-5.69 z" /></g><g
                 id="g598"
                 transform="translate(468.15,391.27)"><path
                   id="path596"
                   style="fill:#274085;fill-opacity:1;fill-rule:nonzero;stroke:none"
                   d="m 0,0 v -4.14 h -5.69 v -5.69 h -4.14 v 5.69 h -5.69 V 0 h 5.69 v 5.69 h 4.14 l 0,-5.69 z" /></g><g
                 id="g602"
                 transform="translate(468.15,417.9)"><path
                   id="path600"
                   style="fill:#274085;fill-opacity:1;fill-rule:nonzero;stroke:none"
                   d="m 0,0 v -4.14 h -5.69 v -5.69 h -4.14 v 5.69 h -5.69 V 0 h 5.69 v 5.69 h 4.14 l 0,-5.69 z" /></g><g
                 id="g606"
                 transform="translate(441.52,338)"><path
                   id="path604"
                   style="fill:#274085;fill-opacity:1;fill-rule:nonzero;stroke:none"
                   d="m 0,0 v -4.13 h -5.69 v -5.69 h -4.14 v 5.69 h -5.69 V 0 h 5.69 v 5.69 h 4.14 l 0,-5.69 z" /></g><g
                 id="g610"
                 transform="translate(441.52,364.64)"><path
                   id="path608"
                   style="fill:#274085;fill-opacity:1;fill-rule:nonzero;stroke:none"
                   d="m 0,0 v -4.14 h -5.69 v -5.69 h -4.14 v 5.69 h -5.69 V 0 h 5.69 v 5.69 h 4.14 l 0,-5.69 z" /></g><g
                 id="g614"
                 transform="translate(441.52,391.27)"><path
                   id="path612"
                   style="fill:#274085;fill-opacity:1;fill-rule:nonzero;stroke:none"
                   d="m 0,0 v -4.14 h -5.69 v -5.69 h -4.14 v 5.69 h -5.69 V 0 h 5.69 v 5.69 h 4.14 l 0,-5.69 z" /></g><g
                 id="g618"
                 transform="translate(441.52,417.9)"><path
                   id="path616"
                   style="fill:#274085;fill-opacity:1;fill-rule:nonzero;stroke:none"
                   d="m 0,0 v -4.14 h -5.69 v -5.69 h -4.14 v 5.69 h -5.69 V 0 h 5.69 v 5.69 h 4.14 l 0,-5.69 z" /></g><g
                 id="g622"
                 transform="translate(414.89,338)"><path
                   id="path620"
                   style="fill:#274085;fill-opacity:1;fill-rule:nonzero;stroke:none"
                   d="m 0,0 v -4.13 h -5.69 v -5.69 h -4.14 v 5.69 h -5.69 V 0 h 5.69 v 5.69 h 4.14 l 0,-5.69 z" /></g><g
                 id="g626"
                 transform="translate(414.89,364.64)"><path
                   id="path624"
                   style="fill:#274085;fill-opacity:1;fill-rule:nonzero;stroke:none"
                   d="m 0,0 v -4.14 h -5.69 v -5.69 h -4.14 v 5.69 h -5.69 V 0 h 5.69 v 5.69 h 4.14 l 0,-5.69 z" /></g><g
                 id="g630"
                 transform="translate(414.89,391.27)"><path
                   id="path628"
                   style="fill:#274085;fill-opacity:1;fill-rule:nonzero;stroke:none"
                   d="m 0,0 v -4.14 h -5.69 v -5.69 h -4.14 v 5.69 h -5.69 V 0 h 5.69 v 5.69 h 4.14 l 0,-5.69 z" /></g><g
                 id="g634"
                 transform="translate(414.89,417.9)"><path
                   id="path632"
                   style="fill:#274085;fill-opacity:1;fill-rule:nonzero;stroke:none"
                   d="m 0,0 v -4.14 h -5.69 v -5.69 h -4.14 v 5.69 h -5.69 V 0 h 5.69 v 5.69 h 4.14 l 0,-5.69 z" /></g></g></g></g></g></g><g
       transform="translate(405.06,387.13)"
       id="g640"><path
         id="path642"
         style="fill:none;stroke:#110f0d;stroke-width:0.05;stroke-linecap:round;stroke-linejoin:round;stroke-miterlimit:4;stroke-dasharray:none;stroke-opacity:1"
         d="M 0,0 V -5.69 H 4.14 V 0 H 9.83 V 4.14 H 4.14 V 9.83 H 0 V 4.14 H -5.69 V 0 Z" /></g><g
       transform="translate(431.69,333.87)"
       id="g644"><path
         id="path646"
         style="fill:none;stroke:#110f0d;stroke-width:0.05;stroke-linecap:round;stroke-linejoin:round;stroke-miterlimit:4;stroke-dasharray:none;stroke-opacity:1"
         d="M 0,0 V -5.69 H 4.14 V 0 H 9.83 V 4.13 H 4.14 V 9.82 H 0 V 4.13 H -5.69 V 0 Z" /></g><g
       transform="translate(431.69,360.5)"
       id="g648"><path
         id="path650"
         style="fill:none;stroke:#110f0d;stroke-width:0.05;stroke-linecap:round;stroke-linejoin:round;stroke-miterlimit:4;stroke-dasharray:none;stroke-opacity:1"
         d="M 0,0 V -5.69 H 4.14 V 0 H 9.83 V 4.14 H 4.14 V 9.83 H 0 V 4.14 H -5.69 V 0 Z" /></g><g
       transform="translate(431.69,387.13)"
       id="g652"><path
         id="path654"
         style="fill:none;stroke:#110f0d;stroke-width:0.05;stroke-linecap:round;stroke-linejoin:round;stroke-miterlimit:4;stroke-dasharray:none;stroke-opacity:1"
         d="M 0,0 V -5.69 H 4.14 V 0 H 9.83 V 4.14 H 4.14 V 9.83 H 0 V 4.14 H -5.69 V 0 Z" /></g><g
       transform="translate(431.69,413.76)"
       id="g656"><path
         id="path658"
         style="fill:none;stroke:#110f0d;stroke-width:0.05;stroke-linecap:round;stroke-linejoin:round;stroke-miterlimit:4;stroke-dasharray:none;stroke-opacity:1"
         d="M 0,0 V -5.69 H 4.14 V 0 H 9.83 V 4.14 H 4.14 V 9.83 H 0 V 4.14 H -5.69 V 0 Z" /></g><g
       transform="translate(458.32,413.76)"
       id="g660"><path
         id="path662"
         style="fill:none;stroke:#110f0d;stroke-width:0.05;stroke-linecap:round;stroke-linejoin:round;stroke-miterlimit:4;stroke-dasharray:none;stroke-opacity:1"
         d="M 0,0 V -5.69 H 4.14 V 0 H 9.83 V 4.14 H 4.14 V 9.83 H 0 V 4.14 H -5.69 V 0 Z" /></g><g
       transform="translate(458.32,387.13)"
       id="g664"><path
         id="path666"
         style="fill:none;stroke:#110f0d;stroke-width:0.05;stroke-linecap:round;stroke-linejoin:round;stroke-miterlimit:4;stroke-dasharray:none;stroke-opacity:1"
         d="M 0,0 V -5.69 H 4.14 V 0 H 9.83 V 4.14 H 4.14 V 9.83 H 0 V 4.14 H -5.69 V 0 Z" /></g><g
       transform="translate(458.32,360.5)"
       id="g668"><path
         id="path670"
         style="fill:none;stroke:#110f0d;stroke-width:0.05;stroke-linecap:round;stroke-linejoin:round;stroke-miterlimit:4;stroke-dasharray:none;stroke-opacity:1"
         d="M 0,0 V -5.69 H 4.14 V 0 H 9.83 V 4.14 H 4.14 V 9.83 H 0 V 4.14 H -5.69 V 0 Z" /></g><g
       transform="translate(458.32,333.87)"
       id="g672"><path
         id="path674"
         style="fill:none;stroke:#110f0d;stroke-width:0.05;stroke-linecap:round;stroke-linejoin:round;stroke-miterlimit:4;stroke-dasharray:none;stroke-opacity:1"
         d="M 0,0 V -5.69 H 4.14 V 0 H 9.83 V 4.13 H 4.14 V 9.82 H 0 V 4.13 H -5.69 V 0 Z" /></g><g
       transform="translate(484.96,333.87)"
       id="g676"><path
         id="path678"
         style="fill:none;stroke:#110f0d;stroke-width:0.05;stroke-linecap:round;stroke-linejoin:round;stroke-miterlimit:4;stroke-dasharray:none;stroke-opacity:1"
         d="M 0,0 V -5.69 H 4.13 V 0 H 9.82 V 4.13 H 4.13 V 9.82 H 0 V 4.13 H -5.69 V 0 Z" /></g><g
       transform="translate(484.96,360.5)"
       id="g680"><path
         id="path682"
         style="fill:none;stroke:#110f0d;stroke-width:0.05;stroke-linecap:round;stroke-linejoin:round;stroke-miterlimit:4;stroke-dasharray:none;stroke-opacity:1"
         d="M 0,0 V -5.69 H 4.13 V 0 H 9.82 V 4.14 H 4.13 V 9.83 H 0 V 4.14 H -5.69 V 0 Z" /></g><g
       transform="translate(484.96,413.76)"
       id="g684"><path
         id="path686"
         style="fill:none;stroke:#110f0d;stroke-width:0.05;stroke-linecap:round;stroke-linejoin:round;stroke-miterlimit:4;stroke-dasharray:none;stroke-opacity:1"
         d="M 0,0 V -5.69 H 4.13 V 0 H 9.82 V 4.14 H 4.13 V 9.83 H 0 V 4.14 H -5.69 V 0 Z" /></g><g
       transform="translate(484.96,387.13)"
       id="g688"><path
         id="path690"
         style="fill:none;stroke:#110f0d;stroke-width:0.05;stroke-linecap:round;stroke-linejoin:round;stroke-miterlimit:4;stroke-dasharray:none;stroke-opacity:1"
         d="M 0,0 V -5.69 H 4.13 V 0 H 9.82 V 4.14 H 4.13 V 9.83 H 0 V 4.14 H -5.69 V 0 Z" /></g><path
       id="path692"
       style="fill:none;stroke:#2e3192;stroke-width:0.75;stroke-linecap:round;stroke-linejoin:round;stroke-miterlimit:4;stroke-dasharray:none;stroke-opacity:1"
       d="M 287.279,322.617 H 393.811 V 429.149 H 287.279 Z" /><path
       id="path694"
       style="fill:none;stroke:#2e3192;stroke-width:0.75;stroke-linecap:round;stroke-linejoin:round;stroke-miterlimit:4;stroke-dasharray:none;stroke-opacity:1"
       d="M 393.811,429.149 H 500.343 V 535.681 H 393.811 Z" /><path
       id="path696"
       style="fill:none;stroke:#2e3192;stroke-width:0.75;stroke-linecap:round;stroke-linejoin:round;stroke-miterlimit:4;stroke-dasharray:none;stroke-opacity:1"
       d="M 287.279,429.149 H 393.811 V 535.681 H 287.279 Z" /><path
       id="path698"
       style="fill:none;stroke:#2e3192;stroke-width:0.75;stroke-linecap:round;stroke-linejoin:round;stroke-miterlimit:4;stroke-dasharray:none;stroke-opacity:1"
       d="M 393.811,322.617 H 500.343 V 429.149 H 393.811 Z" /><g
       id="g700"><g
         clip-path="url(#clipPath706)"
         id="g702"><g
           transform="translate(500.34,322.6208)"
           id="g708"><path
             id="path710"
             style="fill:none;stroke:#2e3192;stroke-width:0.75;stroke-linecap:round;stroke-linejoin:round;stroke-miterlimit:4;stroke-dasharray:none;stroke-opacity:1"
             d="m 0,0 h -106.53 v -106.54 c 28.25,0 55.35,11.23 75.33,31.21 C -11.22,-55.35 0,-28.26 0,0 Z" /></g><g
           transform="translate(393.81,216.0809)"
           id="g712"><path
             id="path714"
             style="fill:none;stroke:#2e3192;stroke-width:0.75;stroke-linecap:round;stroke-linejoin:round;stroke-miterlimit:4;stroke-dasharray:none;stroke-opacity:1"
             d="m 0,0 v 106.54 h -106.53 c 0,-28.26 11.22,-55.35 31.2,-75.33 C -55.35,11.23 -28.25,0 0,0 Z" /></g></g></g></g></svg>